<svg width="417" height="304" viewBox="0 0 417 304" fill="none" xmlns="http://www.w3.org/2000/svg">
<rect width="417" height="304" rx="12" fill="#C199DF"/>
<rect x="17" y="15" width="384" height="273" rx="6" fill="white"/>
<g filter="url(#filter0_d_101_4)">
<path d="M274.556 241.563C274.556 243.521 241.897 240.126 209 205.65L266.212 199.12C266.212 199.12 262.229 207.602 262.04 213.485C261.829 220.101 263.343 223.983 266.212 229.809C268.802 235.067 274.556 241.563 274.556 241.563Z" fill="#618F40" stroke="#618F40"/>
<ellipse cx="209" cy="138.396" rx="118" ry="76.3957" fill="#618F40"/>
<ellipse cx="209" cy="139.049" rx="104.889" ry="66.6014" fill="white"/>
<path d="M260.252 232.421C262.04 235.033 226.283 218.709 211.384 194.55L261.444 189.979C261.444 189.979 256.677 199.12 255.485 206.956C254.293 214.791 256.76 225.397 259.061 229.809C260.422 232.421 260.252 232.421 260.252 232.421Z" fill="white" stroke="white"/>
<path d="M186.768 152.32C185.381 152.32 184.112 151.936 182.96 151.168C181.829 150.4 180.923 149.355 180.24 148.032C179.557 146.709 179.216 145.216 179.216 143.552C179.216 141.867 179.557 140.373 180.24 139.072C180.944 137.749 181.883 136.715 183.056 135.968C184.251 135.221 185.584 134.848 187.056 134.848C187.931 134.848 188.731 134.976 189.456 135.232C190.181 135.488 190.811 135.851 191.344 136.32C191.899 136.768 192.347 137.291 192.688 137.888C193.051 138.485 193.275 139.125 193.36 139.808L192.624 139.552V135.2H195.952V152H192.624V148L193.392 147.776C193.264 148.352 192.997 148.917 192.592 149.472C192.208 150.005 191.707 150.485 191.088 150.912C190.491 151.339 189.819 151.68 189.072 151.936C188.347 152.192 187.579 152.32 186.768 152.32ZM187.632 149.28C188.635 149.28 189.52 149.035 190.288 148.544C191.056 148.053 191.653 147.381 192.08 146.528C192.528 145.653 192.752 144.661 192.752 143.552C192.752 142.464 192.528 141.493 192.08 140.64C191.653 139.787 191.056 139.115 190.288 138.624C189.52 138.133 188.635 137.888 187.632 137.888C186.651 137.888 185.776 138.133 185.008 138.624C184.261 139.115 183.664 139.787 183.216 140.64C182.789 141.493 182.576 142.464 182.576 143.552C182.576 144.661 182.789 145.653 183.216 146.528C183.664 147.381 184.261 148.053 185.008 148.544C185.776 149.035 186.651 149.28 187.632 149.28ZM205.683 152L198.579 135.2H202.131L207.251 147.776L206.643 148.064L212.115 135.2H215.507L208.051 152H205.683ZM224.518 152.32C223.131 152.32 221.862 151.936 220.71 151.168C219.579 150.4 218.673 149.355 217.99 148.032C217.307 146.709 216.966 145.216 216.966 143.552C216.966 141.867 217.307 140.373 217.99 139.072C218.694 137.749 219.633 136.715 220.806 135.968C222.001 135.221 223.334 134.848 224.806 134.848C225.681 134.848 226.481 134.976 227.206 135.232C227.931 135.488 228.561 135.851 229.094 136.32C229.649 136.768 230.097 137.291 230.438 137.888C230.801 138.485 231.025 139.125 231.11 139.808L230.374 139.552V135.2H233.702V152H230.374V148L231.142 147.776C231.014 148.352 230.747 148.917 230.342 149.472C229.958 150.005 229.457 150.485 228.838 150.912C228.241 151.339 227.569 151.68 226.822 151.936C226.097 152.192 225.329 152.32 224.518 152.32ZM225.382 149.28C226.385 149.28 227.27 149.035 228.038 148.544C228.806 148.053 229.403 147.381 229.83 146.528C230.278 145.653 230.502 144.661 230.502 143.552C230.502 142.464 230.278 141.493 229.83 140.64C229.403 139.787 228.806 139.115 228.038 138.624C227.27 138.133 226.385 137.888 225.382 137.888C224.401 137.888 223.526 138.133 222.758 138.624C222.011 139.115 221.414 139.787 220.966 140.64C220.539 141.493 220.326 142.464 220.326 143.552C220.326 144.661 220.539 145.653 220.966 146.528C221.414 147.381 222.011 148.053 222.758 148.544C223.526 149.035 224.401 149.28 225.382 149.28ZM238.784 144.288C238.635 142.944 238.496 141.557 238.368 140.128C238.261 138.677 238.176 137.248 238.112 135.84C238.048 134.432 238.016 133.099 238.016 131.84V129.6H241.472V131.84C241.472 133.163 241.44 134.549 241.376 136C241.312 137.451 241.216 138.891 241.088 140.32C240.981 141.728 240.853 143.051 240.704 144.288H238.784ZM239.648 152.352C238.944 152.352 238.4 152.149 238.016 151.744C237.632 151.317 237.44 150.72 237.44 149.952C237.44 149.248 237.643 148.672 238.048 148.224C238.453 147.776 238.987 147.552 239.648 147.552C240.352 147.552 240.896 147.765 241.28 148.192C241.664 148.597 241.856 149.184 241.856 149.952C241.856 150.656 241.653 151.232 241.248 151.68C240.843 152.128 240.309 152.352 239.648 152.352Z" fill="#618F40"/>
</g>
<defs>
<filter id="filter0_d_101_4" x="85" y="62" width="244" height="190.5" filterUnits="userSpaceOnUse" color-interpolation-filters="sRGB">
<feFlood flood-opacity="0" result="BackgroundImageFix"/>
<feColorMatrix in="SourceAlpha" type="matrix" values="0 0 0 0 0 0 0 0 0 0 0 0 0 0 0 0 0 0 127 0" result="hardAlpha"/>
<feOffset dx="-2" dy="6"/>
<feGaussianBlur stdDeviation="2"/>
<feComposite in2="hardAlpha" operator="out"/>
<feColorMatrix type="matrix" values="0 0 0 0 0 0 0 0 0 0 0 0 0 0 0 0 0 0 0.25 0"/>
<feBlend mode="normal" in2="BackgroundImageFix" result="effect1_dropShadow_101_4"/>
<feBlend mode="normal" in="SourceGraphic" in2="effect1_dropShadow_101_4" result="shape"/>
</filter>
</defs>
</svg>
