<svg width="417" height="304" viewBox="0 0 417 304" fill="none" xmlns="http://www.w3.org/2000/svg">
<rect width="417" height="304" rx="12" fill="#C199DF"/>
<rect x="17" y="15" width="384" height="273" rx="6" fill="white"/>
<path d="M206.92 211.2C233.341 211.2 254.76 190.708 254.76 165.43C254.76 140.152 233.341 119.66 206.92 119.66C180.499 119.66 159.08 140.152 159.08 165.43C159.08 190.708 180.499 211.2 206.92 211.2Z" fill="#F3FF99"/>
<path d="M185.126 69.8138C189.496 70.2376 192.909 73.7683 192.909 78.0614L192.865 78.9087C192.494 82.4025 189.853 85.2471 186.377 86.0914C186.388 86.1781 186.405 86.266 186.405 86.3557V94.9179C190.142 95.8385 192.905 99.0739 192.905 102.936V169.271C192.905 172.839 190.52 176.009 186.982 177.138C183.443 178.266 179.543 177.101 177.305 174.246L140.905 127.811V169.271C140.905 173.133 138.142 176.368 134.405 177.289V185.856C134.405 185.945 134.388 186.03 134.377 186.116C138.13 187.026 140.909 190.272 140.909 194.146L140.865 194.993C140.421 199.175 136.728 202.44 132.24 202.44L131.354 202.397C127.276 202 124.033 198.896 123.619 194.993L123.575 194.146C123.575 190.276 126.351 187.033 130.099 186.12C130.087 186.033 130.075 185.945 130.075 185.856V177.289C126.338 176.368 123.575 173.133 123.575 169.271V102.936L123.599 102.272C123.875 98.9799 126.181 96.1279 129.498 95.0696C133.037 93.9412 136.936 95.1066 139.175 97.9614L175.575 144.392V102.936C175.575 99.0739 178.338 95.8385 182.075 94.9179V86.3557C182.075 86.2661 182.088 86.1779 182.099 86.0914C178.627 85.2456 175.99 82.4008 175.619 78.9087L175.575 78.0614C175.576 73.4831 179.455 69.7717 184.24 69.7711L185.126 69.8138ZM132.24 190.003C129.849 190.004 127.91 191.858 127.909 194.146C127.91 196.435 129.848 198.292 132.24 198.293C134.633 198.293 136.574 196.435 136.575 194.146C136.574 191.857 134.633 190.003 132.24 190.003ZM184.24 73.9182C181.848 73.9189 179.91 75.7728 179.909 78.0614C179.91 80.3503 181.848 82.2078 184.24 82.2086C186.633 82.2085 188.574 80.3507 188.575 78.0614C188.574 75.7723 186.633 73.9182 184.24 73.9182Z" fill="#164EFF"/>
<path d="M205.249 145.907C207.553 144.354 210.505 143.971 213.159 144.877L273.824 165.605L274.458 165.85C276.883 166.89 278.645 168.932 279.296 171.346H288.242C288.334 171.346 288.425 171.358 288.514 171.369C289.468 167.782 292.861 165.127 296.907 165.127L297.793 165.17C302.163 165.594 305.576 169.124 305.577 173.417L305.532 174.265C305.089 178.446 301.395 181.711 296.907 181.711L296.022 181.669C292.37 181.314 289.396 178.786 288.514 175.462C288.425 175.473 288.335 175.489 288.242 175.489H279.296C278.589 178.107 276.572 180.282 273.824 181.222L236.006 194.141L273.824 207.065C277.272 208.243 279.576 211.37 279.577 214.873C279.577 218.377 277.273 221.503 273.824 222.681L213.159 243.409C210.504 244.316 207.553 243.933 205.249 242.379C203.551 241.234 202.369 239.558 201.861 237.676H192.911C192.818 237.676 192.725 237.66 192.635 237.649C191.682 241.239 188.29 243.895 184.242 243.895L183.356 243.852C179.277 243.455 176.035 240.351 175.621 236.448L175.577 235.601C175.578 231.024 179.458 227.312 184.242 227.311L185.128 227.353C188.778 227.707 191.751 230.233 192.635 233.556C192.725 233.546 192.818 233.533 192.911 233.533H201.577V152.686C201.577 149.99 202.946 147.46 205.249 145.907ZM184.242 231.458C181.851 231.459 179.913 233.313 179.911 235.601C179.911 237.89 181.85 239.747 184.242 239.748C186.635 239.748 188.577 237.891 188.577 235.601C188.575 233.313 186.634 231.458 184.242 231.458ZM218.907 223.832L245.139 214.873L218.907 205.91V223.832ZM218.907 182.376L245.139 173.413L218.907 164.45V182.376ZM296.907 169.274C294.515 169.275 292.577 171.128 292.577 173.417C292.577 175.706 294.515 177.564 296.907 177.565C299.3 177.564 301.242 175.706 301.242 173.417C301.241 171.128 299.3 169.274 296.907 169.274Z" fill="#164EFF"/>
</svg>
