<svg width="206" height="149" viewBox="0 0 206 149" fill="none" xmlns="http://www.w3.org/2000/svg">
<g filter="url(#filter0_d_1_34)">
<path d="M160 137.5C160 139 132.6 136.4 105 110L153 105C153 105 149.658 111.495 149.5 116C149.322 121.066 150.593 124.039 153 128.5C155.173 132.526 160 137.5 160 137.5Z" fill="#F9A75B" stroke="#F9A75B"/>
<ellipse cx="105" cy="58.5" rx="99" ry="58.5" fill="#F9A75B"/>
<ellipse cx="105" cy="59" rx="88" ry="51" fill="white"/>
<path d="M148 130.5C149.5 132.5 119.5 120 107 101.5L149 98C149 98 145 105 144 111C143 117 145.07 125.121 147 128.5C148.142 130.5 148 130.5 148 130.5Z" fill="white" stroke="white"/>
<path d="M60.768 72.32C59.3813 72.32 58.112 71.936 56.96 71.168C55.8293 70.4 54.9227 69.3547 54.24 68.032C53.5573 66.7093 53.216 65.216 53.216 63.552C53.216 61.8667 53.5573 60.3733 54.24 59.072C54.944 57.7493 55.8827 56.7147 57.056 55.968C58.2507 55.2213 59.584 54.848 61.056 54.848C61.9307 54.848 62.7307 54.976 63.456 55.232C64.1813 55.488 64.8107 55.8507 65.344 56.32C65.8987 56.768 66.3467 57.2907 66.688 57.888C67.0507 58.4853 67.2747 59.1253 67.36 59.808L66.624 59.552V55.2H69.952V72H66.624V68L67.392 67.776C67.264 68.352 66.9973 68.9173 66.592 69.472C66.208 70.0053 65.7067 70.4853 65.088 70.912C64.4907 71.3387 63.8187 71.68 63.072 71.936C62.3467 72.192 61.5787 72.32 60.768 72.32ZM61.632 69.28C62.6347 69.28 63.52 69.0347 64.288 68.544C65.056 68.0533 65.6533 67.3813 66.08 66.528C66.528 65.6533 66.752 64.6613 66.752 63.552C66.752 62.464 66.528 61.4933 66.08 60.64C65.6533 59.7867 65.056 59.1147 64.288 58.624C63.52 58.1333 62.6347 57.888 61.632 57.888C60.6507 57.888 59.776 58.1333 59.008 58.624C58.2613 59.1147 57.664 59.7867 57.216 60.64C56.7893 61.4933 56.576 62.464 56.576 63.552C56.576 64.6613 56.7893 65.6533 57.216 66.528C57.664 67.3813 58.2613 68.0533 59.008 68.544C59.776 69.0347 60.6507 69.28 61.632 69.28ZM83.386 72.32C82.6607 72.32 81.9353 72.2027 81.21 71.968C80.506 71.7333 79.8553 71.424 79.258 71.04C78.682 70.6347 78.1913 70.1973 77.786 69.728C77.402 69.2373 77.146 68.7467 77.018 68.256L77.85 67.808V71.904H74.554V48.32H77.85V59.04L77.338 58.752C77.4447 58.2613 77.6793 57.792 78.042 57.344C78.4047 56.8747 78.8633 56.4587 79.418 56.096C79.994 55.712 80.6127 55.4133 81.274 55.2C81.9353 54.9653 82.6073 54.848 83.29 54.848C84.8047 54.848 86.1487 55.2213 87.322 55.968C88.4953 56.7147 89.4233 57.7493 90.106 59.072C90.7887 60.3733 91.13 61.8667 91.13 63.552C91.13 65.2373 90.7887 66.7413 90.106 68.064C89.4447 69.3867 88.5273 70.432 87.354 71.2C86.1807 71.9467 84.858 72.32 83.386 72.32ZM82.842 69.312C83.8233 69.312 84.698 69.0667 85.466 68.576C86.234 68.064 86.842 67.3813 87.29 66.528C87.738 65.6533 87.962 64.6613 87.962 63.552C87.962 62.464 87.738 61.4933 87.29 60.64C86.8633 59.7653 86.266 59.0827 85.498 58.592C84.73 58.1013 83.8447 57.856 82.842 57.856C81.8393 57.856 80.954 58.1013 80.186 58.592C79.418 59.0827 78.81 59.7653 78.362 60.64C77.914 61.4933 77.69 62.464 77.69 63.552C77.69 64.6613 77.914 65.6533 78.362 66.528C78.81 67.3813 79.418 68.064 80.186 68.576C80.954 69.0667 81.8393 69.312 82.842 69.312ZM102.262 72.32C100.62 72.32 99.1476 71.9467 97.8463 71.2C96.5663 70.432 95.5529 69.3973 94.8063 68.096C94.0596 66.7733 93.6863 65.2693 93.6863 63.584C93.6863 61.8987 94.0596 60.4053 94.8063 59.104C95.5529 57.7813 96.5663 56.7467 97.8463 56C99.1476 55.232 100.62 54.848 102.262 54.848C103.884 54.848 105.334 55.232 106.614 56C107.916 56.7467 108.94 57.7813 109.686 59.104C110.433 60.4053 110.806 61.8987 110.806 63.584C110.806 65.2693 110.433 66.7733 109.686 68.096C108.94 69.3973 107.916 70.432 106.614 71.2C105.334 71.9467 103.884 72.32 102.262 72.32ZM102.262 69.312C103.265 69.312 104.161 69.0667 104.95 68.576C105.74 68.064 106.358 67.3813 106.806 66.528C107.254 65.6533 107.468 64.672 107.446 63.584C107.468 62.4747 107.254 61.4933 106.806 60.64C106.358 59.7653 105.74 59.0827 104.95 58.592C104.161 58.1013 103.265 57.856 102.262 57.856C101.26 57.856 100.353 58.112 99.5423 58.624C98.7529 59.1147 98.1343 59.7973 97.6863 60.672C97.2383 61.5253 97.0249 62.496 97.0463 63.584C97.0249 64.672 97.2383 65.6533 97.6863 66.528C98.1343 67.3813 98.7529 68.064 99.5423 68.576C100.353 69.0667 101.26 69.312 102.262 69.312ZM120.286 72.32C119.091 72.32 118.046 72.0427 117.15 71.488C116.275 70.9333 115.592 70.1547 115.102 69.152C114.632 68.1493 114.398 66.9547 114.398 65.568V55.2H117.694V64.672C117.694 65.6533 117.843 66.5067 118.142 67.232C118.462 67.936 118.91 68.48 119.486 68.864C120.083 69.248 120.798 69.44 121.63 69.44C122.248 69.44 122.814 69.344 123.326 69.152C123.838 68.9387 124.275 68.6507 124.638 68.288C125.022 67.9253 125.32 67.488 125.534 66.976C125.747 66.464 125.854 65.9093 125.854 65.312V55.2H129.15V72H125.854V68.48L126.43 68.096C126.174 68.8853 125.736 69.6 125.118 70.24C124.52 70.88 123.806 71.392 122.974 71.776C122.142 72.1387 121.246 72.32 120.286 72.32ZM135.853 72V50.912H139.149V72H135.853ZM132.365 58.4V55.2H143.053V58.4H132.365ZM146.534 64.288C146.385 62.944 146.246 61.5573 146.118 60.128C146.011 58.6773 145.926 57.248 145.862 55.84C145.798 54.432 145.766 53.0987 145.766 51.84V49.6H149.222V51.84C149.222 53.1627 149.19 54.5493 149.126 56C149.062 57.4507 148.966 58.8907 148.838 60.32C148.731 61.728 148.603 63.0507 148.454 64.288H146.534ZM147.398 72.352C146.694 72.352 146.15 72.1493 145.766 71.744C145.382 71.3173 145.19 70.72 145.19 69.952C145.19 69.248 145.393 68.672 145.798 68.224C146.203 67.776 146.737 67.552 147.398 67.552C148.102 67.552 148.646 67.7653 149.03 68.192C149.414 68.5973 149.606 69.184 149.606 69.952C149.606 70.656 149.403 71.232 148.998 71.68C148.593 72.128 148.059 72.352 147.398 72.352Z" fill="#D06F15"/>
</g>
<defs>
<filter id="filter0_d_1_34" x="0" y="0" width="206" height="148.335" filterUnits="userSpaceOnUse" color-interpolation-filters="sRGB">
<feFlood flood-opacity="0" result="BackgroundImageFix"/>
<feColorMatrix in="SourceAlpha" type="matrix" values="0 0 0 0 0 0 0 0 0 0 0 0 0 0 0 0 0 0 127 0" result="hardAlpha"/>
<feOffset dx="-2" dy="6"/>
<feGaussianBlur stdDeviation="2"/>
<feComposite in2="hardAlpha" operator="out"/>
<feColorMatrix type="matrix" values="0 0 0 0 0 0 0 0 0 0 0 0 0 0 0 0 0 0 0.25 0"/>
<feBlend mode="normal" in2="BackgroundImageFix" result="effect1_dropShadow_1_34"/>
<feBlend mode="normal" in="SourceGraphic" in2="effect1_dropShadow_1_34" result="shape"/>
</filter>
</defs>
</svg>
