<svg width="206" height="149" viewBox="0 0 206 149" fill="none" xmlns="http://www.w3.org/2000/svg">
<g filter="url(#filter0_d_22_8)">
<path d="M160 137.5C160 139 132.6 136.4 105 110L153 105C153 105 149.658 111.495 149.5 116C149.322 121.066 150.593 124.039 153 128.5C155.173 132.526 160 137.5 160 137.5Z" fill="#9DD575" stroke="#9DD575"/>
<ellipse cx="105" cy="58.5" rx="99" ry="58.5" fill="#9DD575"/>
<ellipse cx="105" cy="59" rx="88" ry="51" fill="white"/>
<path d="M148 130.5C149.5 132.5 119.5 120 107 101.5L149 98C149 98 145 105 144 111C143 117 145.07 125.121 147 128.5C148.142 130.5 148 130.5 148 130.5Z" fill="white" stroke="white"/>
<path d="M80.768 72.32C79.3813 72.32 78.112 71.936 76.96 71.168C75.8293 70.4 74.9227 69.3547 74.24 68.032C73.5573 66.7093 73.216 65.216 73.216 63.552C73.216 61.8667 73.5573 60.3733 74.24 59.072C74.944 57.7493 75.8827 56.7147 77.056 55.968C78.2507 55.2213 79.584 54.848 81.056 54.848C81.9307 54.848 82.7307 54.976 83.456 55.232C84.1813 55.488 84.8107 55.8507 85.344 56.32C85.8987 56.768 86.3467 57.2907 86.688 57.888C87.0507 58.4853 87.2747 59.1253 87.36 59.808L86.624 59.552V55.2H89.952V72H86.624V68L87.392 67.776C87.264 68.352 86.9973 68.9173 86.592 69.472C86.208 70.0053 85.7067 70.4853 85.088 70.912C84.4907 71.3387 83.8187 71.68 83.072 71.936C82.3467 72.192 81.5787 72.32 80.768 72.32ZM81.632 69.28C82.6347 69.28 83.52 69.0347 84.288 68.544C85.056 68.0533 85.6533 67.3813 86.08 66.528C86.528 65.6533 86.752 64.6613 86.752 63.552C86.752 62.464 86.528 61.4933 86.08 60.64C85.6533 59.7867 85.056 59.1147 84.288 58.624C83.52 58.1333 82.6347 57.888 81.632 57.888C80.6507 57.888 79.776 58.1333 79.008 58.624C78.2613 59.1147 77.664 59.7867 77.216 60.64C76.7893 61.4933 76.576 62.464 76.576 63.552C76.576 64.6613 76.7893 65.6533 77.216 66.528C77.664 67.3813 78.2613 68.0533 79.008 68.544C79.776 69.0347 80.6507 69.28 81.632 69.28ZM99.683 72L92.579 55.2H96.131L101.251 67.776L100.643 68.064L106.115 55.2H109.507L102.051 72H99.683ZM118.518 72.32C117.131 72.32 115.862 71.936 114.71 71.168C113.579 70.4 112.673 69.3547 111.99 68.032C111.307 66.7093 110.966 65.216 110.966 63.552C110.966 61.8667 111.307 60.3733 111.99 59.072C112.694 57.7493 113.633 56.7147 114.806 55.968C116.001 55.2213 117.334 54.848 118.806 54.848C119.681 54.848 120.481 54.976 121.206 55.232C121.931 55.488 122.561 55.8507 123.094 56.32C123.649 56.768 124.097 57.2907 124.438 57.888C124.801 58.4853 125.025 59.1253 125.11 59.808L124.374 59.552V55.2H127.702V72H124.374V68L125.142 67.776C125.014 68.352 124.747 68.9173 124.342 69.472C123.958 70.0053 123.457 70.4853 122.838 70.912C122.241 71.3387 121.569 71.68 120.822 71.936C120.097 72.192 119.329 72.32 118.518 72.32ZM119.382 69.28C120.385 69.28 121.27 69.0347 122.038 68.544C122.806 68.0533 123.403 67.3813 123.83 66.528C124.278 65.6533 124.502 64.6613 124.502 63.552C124.502 62.464 124.278 61.4933 123.83 60.64C123.403 59.7867 122.806 59.1147 122.038 58.624C121.27 58.1333 120.385 57.888 119.382 57.888C118.401 57.888 117.526 58.1333 116.758 58.624C116.011 59.1147 115.414 59.7867 114.966 60.64C114.539 61.4933 114.326 62.464 114.326 63.552C114.326 64.6613 114.539 65.6533 114.966 66.528C115.414 67.3813 116.011 68.0533 116.758 68.544C117.526 69.0347 118.401 69.28 119.382 69.28ZM132.784 64.288C132.635 62.944 132.496 61.5573 132.368 60.128C132.261 58.6773 132.176 57.248 132.112 55.84C132.048 54.432 132.016 53.0987 132.016 51.84V49.6H135.472V51.84C135.472 53.1627 135.44 54.5493 135.376 56C135.312 57.4507 135.216 58.8907 135.088 60.32C134.981 61.728 134.853 63.0507 134.704 64.288H132.784ZM133.648 72.352C132.944 72.352 132.4 72.1493 132.016 71.744C131.632 71.3173 131.44 70.72 131.44 69.952C131.44 69.248 131.643 68.672 132.048 68.224C132.453 67.776 132.987 67.552 133.648 67.552C134.352 67.552 134.896 67.7653 135.28 68.192C135.664 68.5973 135.856 69.184 135.856 69.952C135.856 70.656 135.653 71.232 135.248 71.68C134.843 72.128 134.309 72.352 133.648 72.352Z" fill="#618F40"/>
</g>
<defs>
<filter id="filter0_d_22_8" x="0" y="0" width="206" height="148.335" filterUnits="userSpaceOnUse" color-interpolation-filters="sRGB">
<feFlood flood-opacity="0" result="BackgroundImageFix"/>
<feColorMatrix in="SourceAlpha" type="matrix" values="0 0 0 0 0 0 0 0 0 0 0 0 0 0 0 0 0 0 127 0" result="hardAlpha"/>
<feOffset dx="-2" dy="6"/>
<feGaussianBlur stdDeviation="2"/>
<feComposite in2="hardAlpha" operator="out"/>
<feColorMatrix type="matrix" values="0 0 0 0 0 0 0 0 0 0 0 0 0 0 0 0 0 0 0.25 0"/>
<feBlend mode="normal" in2="BackgroundImageFix" result="effect1_dropShadow_22_8"/>
<feBlend mode="normal" in="SourceGraphic" in2="effect1_dropShadow_22_8" result="shape"/>
</filter>
</defs>
</svg>
