<svg width="206" height="149" viewBox="0 0 206 149" fill="none" xmlns="http://www.w3.org/2000/svg">
<g filter="url(#filter0_d_32_4)">
<path d="M160 137.5C160 139 132.6 136.4 105 110L153 105C153 105 149.658 111.495 149.5 116C149.322 121.066 150.593 124.039 153 128.5C155.173 132.526 160 137.5 160 137.5Z" fill="#D06F15" stroke="#D06F15"/>
<ellipse cx="105" cy="58.5" rx="99" ry="58.5" fill="#D06F15"/>
<ellipse cx="105" cy="59" rx="88" ry="51" fill="white"/>
<path d="M148 130.5C149.5 132.5 119.5 120 107 101.5L149 98C149 98 145 105 144 111C143 117 145.07 125.121 147 128.5C148.142 130.5 148 130.5 148 130.5Z" fill="white" stroke="white"/>
<path d="M78.768 72.32C77.3813 72.32 76.112 71.936 74.96 71.168C73.8293 70.4 72.9227 69.3547 72.24 68.032C71.5573 66.7093 71.216 65.216 71.216 63.552C71.216 61.8667 71.5573 60.3733 72.24 59.072C72.944 57.7493 73.8827 56.7147 75.056 55.968C76.2507 55.2213 77.584 54.848 79.056 54.848C79.9307 54.848 80.7307 54.976 81.456 55.232C82.1813 55.488 82.8107 55.8507 83.344 56.32C83.8987 56.768 84.3467 57.2907 84.688 57.888C85.0507 58.4853 85.2747 59.1253 85.36 59.808L84.624 59.552V55.2H87.952V72H84.624V68L85.392 67.776C85.264 68.352 84.9973 68.9173 84.592 69.472C84.208 70.0053 83.7067 70.4853 83.088 70.912C82.4907 71.3387 81.8187 71.68 81.072 71.936C80.3467 72.192 79.5787 72.32 78.768 72.32ZM79.632 69.28C80.6347 69.28 81.52 69.0347 82.288 68.544C83.056 68.0533 83.6533 67.3813 84.08 66.528C84.528 65.6533 84.752 64.6613 84.752 63.552C84.752 62.464 84.528 61.4933 84.08 60.64C83.6533 59.7867 83.056 59.1147 82.288 58.624C81.52 58.1333 80.6347 57.888 79.632 57.888C78.6507 57.888 77.776 58.1333 77.008 58.624C76.2613 59.1147 75.664 59.7867 75.216 60.64C74.7893 61.4933 74.576 62.464 74.576 63.552C74.576 64.6613 74.7893 65.6533 75.216 66.528C75.664 67.3813 76.2613 68.0533 77.008 68.544C77.776 69.0347 78.6507 69.28 79.632 69.28ZM97.683 72L90.579 55.2H94.131L99.251 67.776L98.643 68.064L104.115 55.2H107.507L100.051 72H97.683ZM116.518 72.32C115.131 72.32 113.862 71.936 112.71 71.168C111.579 70.4 110.673 69.3547 109.99 68.032C109.307 66.7093 108.966 65.216 108.966 63.552C108.966 61.8667 109.307 60.3733 109.99 59.072C110.694 57.7493 111.633 56.7147 112.806 55.968C114.001 55.2213 115.334 54.848 116.806 54.848C117.681 54.848 118.481 54.976 119.206 55.232C119.931 55.488 120.561 55.8507 121.094 56.32C121.649 56.768 122.097 57.2907 122.438 57.888C122.801 58.4853 123.025 59.1253 123.11 59.808L122.374 59.552V55.2H125.702V72H122.374V68L123.142 67.776C123.014 68.352 122.747 68.9173 122.342 69.472C121.958 70.0053 121.457 70.4853 120.838 70.912C120.241 71.3387 119.569 71.68 118.822 71.936C118.097 72.192 117.329 72.32 116.518 72.32ZM117.382 69.28C118.385 69.28 119.27 69.0347 120.038 68.544C120.806 68.0533 121.403 67.3813 121.83 66.528C122.278 65.6533 122.502 64.6613 122.502 63.552C122.502 62.464 122.278 61.4933 121.83 60.64C121.403 59.7867 120.806 59.1147 120.038 58.624C119.27 58.1333 118.385 57.888 117.382 57.888C116.401 57.888 115.526 58.1333 114.758 58.624C114.011 59.1147 113.414 59.7867 112.966 60.64C112.539 61.4933 112.326 62.464 112.326 63.552C112.326 64.6613 112.539 65.6533 112.966 66.528C113.414 67.3813 114.011 68.0533 114.758 68.544C115.526 69.0347 116.401 69.28 117.382 69.28ZM130.784 64.288C130.635 62.944 130.496 61.5573 130.368 60.128C130.261 58.6773 130.176 57.248 130.112 55.84C130.048 54.432 130.016 53.0987 130.016 51.84V49.6H133.472V51.84C133.472 53.1627 133.44 54.5493 133.376 56C133.312 57.4507 133.216 58.8907 133.088 60.32C132.981 61.728 132.853 63.0507 132.704 64.288H130.784ZM131.648 72.352C130.944 72.352 130.4 72.1493 130.016 71.744C129.632 71.3173 129.44 70.72 129.44 69.952C129.44 69.248 129.643 68.672 130.048 68.224C130.453 67.776 130.987 67.552 131.648 67.552C132.352 67.552 132.896 67.7653 133.28 68.192C133.664 68.5973 133.856 69.184 133.856 69.952C133.856 70.656 133.653 71.232 133.248 71.68C132.843 72.128 132.309 72.352 131.648 72.352Z" fill="#D06F15"/>
</g>
<defs>
<filter id="filter0_d_32_4" x="0" y="0" width="206" height="148.335" filterUnits="userSpaceOnUse" color-interpolation-filters="sRGB">
<feFlood flood-opacity="0" result="BackgroundImageFix"/>
<feColorMatrix in="SourceAlpha" type="matrix" values="0 0 0 0 0 0 0 0 0 0 0 0 0 0 0 0 0 0 127 0" result="hardAlpha"/>
<feOffset dx="-2" dy="6"/>
<feGaussianBlur stdDeviation="2"/>
<feComposite in2="hardAlpha" operator="out"/>
<feColorMatrix type="matrix" values="0 0 0 0 0 0 0 0 0 0 0 0 0 0 0 0 0 0 0.25 0"/>
<feBlend mode="normal" in2="BackgroundImageFix" result="effect1_dropShadow_32_4"/>
<feBlend mode="normal" in="SourceGraphic" in2="effect1_dropShadow_32_4" result="shape"/>
</filter>
</defs>
</svg>
