<svg width="229" height="167" viewBox="0 0 229 167" fill="none" xmlns="http://www.w3.org/2000/svg">
<g filter="url(#filter0_d_13_63)">
<path d="M62.2472 142.397C59.4144 139.407 55 133.5 52 124.762C46.9128 109.945 91.6432 118.625 91.6432 118.625L87.3031 130.673C87.3031 130.673 84 133.5 82.5 140C81 146.5 83.364 150.516 84 152C85.5 155.5 87 156.309 83 155C82.4287 154.813 82.0512 154.69 81.8107 154.611C81.0886 154.376 81.6009 154.544 81.8107 154.611C82.0204 154.678 81.928 154.643 80 154C75.5 152.5 73.9439 151.76 70.5 149.5C67.0561 147.24 65.08 145.387 62.2472 142.397Z" fill="#53B5AD" stroke="#53B5AD"/>
<ellipse cx="113.5" cy="68" rx="110.5" ry="68" fill="#53B5AD"/>
<path d="M57.5 123C56.0819 119.377 54 113 54 113L87.5 122C87.5 122 84.9217 123.31 83.4217 125.31C81.9217 127.31 80.9777 128.146 79.9375 129.839C78.8973 131.533 77.871 133.107 77.4986 134.16C77.1263 135.213 77 134.937 76.2443 138.55C75.7137 141.087 75.6772 142.112 75.6772 143.475C75.6772 144.838 75.7101 145.42 76.5 147C77.2899 148.58 73.1415 145.241 71.4289 143.614C69.7163 141.987 66.5875 138.58 64.0723 134.937C61.5571 131.294 58.9181 126.623 57.5 123Z" fill="white" stroke="white"/>
<ellipse cx="113.5" cy="67.5" rx="99.5" ry="57.5" fill="white"/>
<path d="M32.144 81.32C30.416 81.32 28.88 80.9573 27.536 80.232C26.2133 79.4853 25.168 78.472 24.4 77.192C23.6533 75.912 23.28 74.44 23.28 72.776C23.28 71.4533 23.4933 70.248 23.92 69.16C24.3467 68.072 24.9333 67.1333 25.68 66.344C26.448 65.5333 27.3547 64.9147 28.4 64.488C29.4667 64.04 30.6187 63.816 31.856 63.816C32.944 63.816 33.9573 64.0293 34.896 64.456C35.8347 64.8613 36.6453 65.4267 37.328 66.152C38.032 66.8773 38.5653 67.7413 38.928 68.744C39.312 69.7253 39.4933 70.8027 39.472 71.976L39.44 73.384H25.712L24.976 70.76H36.592L36.112 71.304V70.536C36.048 69.832 35.8133 69.2027 35.408 68.648C35.0027 68.0933 34.4907 67.656 33.872 67.336C33.2533 67.016 32.5813 66.856 31.856 66.856C30.704 66.856 29.7333 67.08 28.944 67.528C28.1547 67.9547 27.5573 68.5947 27.152 69.448C26.7467 70.28 26.544 71.3147 26.544 72.552C26.544 73.7253 26.7893 74.7493 27.28 75.624C27.7707 76.4773 28.464 77.1387 29.36 77.608C30.256 78.0773 31.2907 78.312 32.464 78.312C33.296 78.312 34.064 78.1733 34.768 77.896C35.4933 77.6187 36.272 77.1173 37.104 76.392L38.768 78.728C38.256 79.24 37.6267 79.688 36.88 80.072C36.1547 80.456 35.376 80.7653 34.544 81C33.7333 81.2133 32.9333 81.32 32.144 81.32ZM54.1283 81L48.6883 73.928L48.2083 73.32L41.1363 64.2H45.2963L50.6403 71.176L51.1843 71.88L58.1603 81H54.1283ZM41.1683 81L47.7923 72.36L49.7443 74.696L45.0723 81H41.1683ZM51.3763 72.872L49.5523 70.568L53.6803 64.2H57.5843L51.3763 72.872ZM60.929 88.04V64.2H64.257V68.04L63.745 67.752C63.873 67.112 64.2357 66.504 64.833 65.928C65.4303 65.3307 66.1557 64.8507 67.009 64.488C67.8837 64.104 68.7797 63.912 69.697 63.912C71.2117 63.912 72.5557 64.2853 73.729 65.032C74.9023 65.7787 75.8303 66.8027 76.513 68.104C77.1957 69.4053 77.537 70.8987 77.537 72.584C77.537 74.248 77.1957 75.7413 76.513 77.064C75.8517 78.3653 74.9343 79.4 73.761 80.168C72.5877 80.9147 71.265 81.288 69.793 81.288C68.8117 81.288 67.8623 81.096 66.945 80.712C66.0277 80.3067 65.249 79.7947 64.609 79.176C63.969 78.5573 63.5743 77.9173 63.425 77.256L64.257 76.808V88.04H60.929ZM69.249 78.248C70.2303 78.248 71.105 78.0027 71.873 77.512C72.641 77.0213 73.249 76.3493 73.697 75.496C74.145 74.6427 74.369 73.672 74.369 72.584C74.369 71.496 74.145 70.536 73.697 69.704C73.2703 68.8507 72.673 68.1787 71.905 67.688C71.137 67.1973 70.2517 66.952 69.249 66.952C68.2463 66.952 67.361 67.1973 66.593 67.688C65.825 68.1573 65.217 68.8187 64.769 69.672C64.321 70.5253 64.097 71.496 64.097 72.584C64.097 73.672 64.321 74.6427 64.769 75.496C65.217 76.3493 65.825 77.0213 66.593 77.512C67.361 78.0027 68.2463 78.248 69.249 78.248ZM88.9565 81.32C87.2285 81.32 85.6925 80.9573 84.3485 80.232C83.0258 79.4853 81.9805 78.472 81.2125 77.192C80.4658 75.912 80.0925 74.44 80.0925 72.776C80.0925 71.4533 80.3058 70.248 80.7325 69.16C81.1592 68.072 81.7458 67.1333 82.4925 66.344C83.2605 65.5333 84.1672 64.9147 85.2125 64.488C86.2792 64.04 87.4312 63.816 88.6685 63.816C89.7565 63.816 90.7698 64.0293 91.7085 64.456C92.6472 64.8613 93.4578 65.4267 94.1405 66.152C94.8445 66.8773 95.3778 67.7413 95.7405 68.744C96.1245 69.7253 96.3058 70.8027 96.2845 71.976L96.2525 73.384H82.5245L81.7885 70.76H93.4045L92.9245 71.304V70.536C92.8605 69.832 92.6258 69.2027 92.2205 68.648C91.8152 68.0933 91.3032 67.656 90.6845 67.336C90.0658 67.016 89.3938 66.856 88.6685 66.856C87.5165 66.856 86.5458 67.08 85.7565 67.528C84.9672 67.9547 84.3698 68.5947 83.9645 69.448C83.5592 70.28 83.3565 71.3147 83.3565 72.552C83.3565 73.7253 83.6018 74.7493 84.0925 75.624C84.5832 76.4773 85.2765 77.1387 86.1725 77.608C87.0685 78.0773 88.1032 78.312 89.2765 78.312C90.1085 78.312 90.8765 78.1733 91.5805 77.896C92.3058 77.6187 93.0845 77.1173 93.9165 76.392L95.5805 78.728C95.0685 79.24 94.4392 79.688 93.6925 80.072C92.9672 80.456 92.1885 80.7653 91.3565 81C90.5458 81.2133 89.7458 81.32 88.9565 81.32ZM99.8665 81V64.2H103.195V69.48L102.875 68.2C103.109 67.3893 103.504 66.6533 104.059 65.992C104.635 65.3307 105.285 64.808 106.01 64.424C106.757 64.04 107.525 63.848 108.315 63.848C108.677 63.848 109.019 63.88 109.339 63.944C109.68 64.008 109.947 64.0827 110.139 64.168L109.275 67.752C109.019 67.6453 108.731 67.56 108.411 67.496C108.112 67.4107 107.813 67.368 107.515 67.368C106.939 67.368 106.384 67.4853 105.851 67.72C105.339 67.9333 104.88 68.2427 104.475 68.648C104.091 69.032 103.781 69.4907 103.547 70.024C103.312 70.536 103.195 71.1013 103.195 71.72V81H99.8665ZM113.317 81V64.2H116.613V81H113.317ZM114.917 60.488C114.213 60.488 113.669 60.3067 113.285 59.944C112.901 59.5813 112.709 59.0693 112.709 58.408C112.709 57.7893 112.901 57.288 113.285 56.904C113.69 56.52 114.234 56.328 114.917 56.328C115.621 56.328 116.165 56.5093 116.549 56.872C116.933 57.2347 117.125 57.7467 117.125 58.408C117.125 59.0267 116.922 59.528 116.517 59.912C116.133 60.296 115.599 60.488 114.917 60.488ZM129.519 81.32C127.791 81.32 126.255 80.9573 124.911 80.232C123.588 79.4853 122.543 78.472 121.775 77.192C121.028 75.912 120.655 74.44 120.655 72.776C120.655 71.4533 120.868 70.248 121.295 69.16C121.722 68.072 122.308 67.1333 123.055 66.344C123.823 65.5333 124.73 64.9147 125.775 64.488C126.842 64.04 127.994 63.816 129.231 63.816C130.319 63.816 131.332 64.0293 132.271 64.456C133.21 64.8613 134.02 65.4267 134.703 66.152C135.407 66.8773 135.94 67.7413 136.303 68.744C136.687 69.7253 136.868 70.8027 136.847 71.976L136.815 73.384H123.087L122.351 70.76H133.967L133.487 71.304V70.536C133.423 69.832 133.188 69.2027 132.783 68.648C132.378 68.0933 131.866 67.656 131.247 67.336C130.628 67.016 129.956 66.856 129.231 66.856C128.079 66.856 127.108 67.08 126.319 67.528C125.53 67.9547 124.932 68.5947 124.527 69.448C124.122 70.28 123.919 71.3147 123.919 72.552C123.919 73.7253 124.164 74.7493 124.655 75.624C125.146 76.4773 125.839 77.1387 126.735 77.608C127.631 78.0773 128.666 78.312 129.839 78.312C130.671 78.312 131.439 78.1733 132.143 77.896C132.868 77.6187 133.647 77.1173 134.479 76.392L136.143 78.728C135.631 79.24 135.002 79.688 134.255 80.072C133.53 80.456 132.751 80.7653 131.919 81C131.108 81.2133 130.308 81.32 129.519 81.32ZM140.429 81V64.2H143.725V67.656L143.149 68.04C143.362 67.2933 143.778 66.6107 144.397 65.992C145.016 65.352 145.752 64.84 146.605 64.456C147.458 64.0507 148.333 63.848 149.229 63.848C150.509 63.848 151.576 64.104 152.429 64.616C153.282 65.1067 153.922 65.864 154.349 66.888C154.776 67.912 154.989 69.2027 154.989 70.76V81H151.693V70.984C151.693 70.024 151.565 69.2347 151.309 68.616C151.053 67.976 150.658 67.5173 150.125 67.24C149.592 66.9413 148.93 66.8133 148.141 66.856C147.501 66.856 146.914 66.9627 146.381 67.176C145.848 67.368 145.378 67.6453 144.973 68.008C144.589 68.3707 144.28 68.7973 144.045 69.288C143.832 69.7573 143.725 70.2693 143.725 70.824V81H142.093C141.816 81 141.538 81 141.261 81C140.984 81 140.706 81 140.429 81ZM166.596 81.32C165.039 81.32 163.642 80.936 162.404 80.168C161.188 79.4 160.218 78.3547 159.492 77.032C158.788 75.7093 158.436 74.2267 158.436 72.584C158.436 70.9413 158.788 69.4587 159.492 68.136C160.218 66.8133 161.188 65.768 162.404 65C163.642 64.232 165.039 63.848 166.596 63.848C168.09 63.848 169.444 64.1573 170.66 64.776C171.898 65.3733 172.836 66.1947 173.476 67.24L171.652 69.48C171.311 68.9893 170.874 68.5413 170.34 68.136C169.807 67.7307 169.242 67.4107 168.644 67.176C168.047 66.9413 167.471 66.824 166.916 66.824C165.892 66.824 164.975 67.08 164.164 67.592C163.375 68.0827 162.746 68.7653 162.276 69.64C161.807 70.5147 161.572 71.496 161.572 72.584C161.572 73.672 161.818 74.6533 162.308 75.528C162.799 76.3813 163.45 77.064 164.26 77.576C165.071 78.088 165.967 78.344 166.948 78.344C167.524 78.344 168.079 78.248 168.612 78.056C169.167 77.864 169.7 77.576 170.212 77.192C170.724 76.808 171.204 76.3387 171.652 75.784L173.476 78.024C172.794 78.984 171.812 79.7733 170.532 80.392C169.274 81.0107 167.962 81.32 166.596 81.32ZM184.425 81.32C182.697 81.32 181.161 80.9573 179.817 80.232C178.495 79.4853 177.449 78.472 176.681 77.192C175.935 75.912 175.561 74.44 175.561 72.776C175.561 71.4533 175.775 70.248 176.201 69.16C176.628 68.072 177.215 67.1333 177.961 66.344C178.729 65.5333 179.636 64.9147 180.681 64.488C181.748 64.04 182.9 63.816 184.137 63.816C185.225 63.816 186.239 64.0293 187.177 64.456C188.116 64.8613 188.927 65.4267 189.609 66.152C190.313 66.8773 190.847 67.7413 191.209 68.744C191.593 69.7253 191.775 70.8027 191.753 71.976L191.721 73.384H177.993L177.257 70.76H188.873L188.393 71.304V70.536C188.329 69.832 188.095 69.2027 187.689 68.648C187.284 68.0933 186.772 67.656 186.153 67.336C185.535 67.016 184.863 66.856 184.137 66.856C182.985 66.856 182.015 67.08 181.225 67.528C180.436 67.9547 179.839 68.5947 179.433 69.448C179.028 70.28 178.825 71.3147 178.825 72.552C178.825 73.7253 179.071 74.7493 179.561 75.624C180.052 76.4773 180.745 77.1387 181.641 77.608C182.537 78.0773 183.572 78.312 184.745 78.312C185.577 78.312 186.345 78.1733 187.049 77.896C187.775 77.6187 188.553 77.1173 189.385 76.392L191.049 78.728C190.537 79.24 189.908 79.688 189.161 80.072C188.436 80.456 187.657 80.7653 186.825 81C186.015 81.2133 185.215 81.32 184.425 81.32ZM195.815 73.288C195.666 71.944 195.527 70.5573 195.399 69.128C195.293 67.6773 195.207 66.248 195.143 64.84C195.079 63.432 195.047 62.0987 195.047 60.84V58.6H198.503V60.84C198.503 62.1627 198.471 63.5493 198.407 65C198.343 66.4507 198.247 67.8907 198.119 69.32C198.013 70.728 197.885 72.0507 197.735 73.288H195.815ZM196.679 81.352C195.975 81.352 195.431 81.1493 195.047 80.744C194.663 80.3173 194.471 79.72 194.471 78.952C194.471 78.248 194.674 77.672 195.079 77.224C195.485 76.776 196.018 76.552 196.679 76.552C197.383 76.552 197.927 76.7653 198.311 77.192C198.695 77.5973 198.887 78.184 198.887 78.952C198.887 79.656 198.685 80.232 198.279 80.68C197.874 81.128 197.341 81.352 196.679 81.352Z" fill="#187D75"/>
</g>
<defs>
<filter id="filter0_d_13_63" x="0" y="0" width="229" height="166.091" filterUnits="userSpaceOnUse" color-interpolation-filters="sRGB">
<feFlood flood-opacity="0" result="BackgroundImageFix"/>
<feColorMatrix in="SourceAlpha" type="matrix" values="0 0 0 0 0 0 0 0 0 0 0 0 0 0 0 0 0 0 127 0" result="hardAlpha"/>
<feOffset dx="1" dy="6"/>
<feGaussianBlur stdDeviation="2"/>
<feComposite in2="hardAlpha" operator="out"/>
<feColorMatrix type="matrix" values="0 0 0 0 0 0 0 0 0 0 0 0 0 0 0 0 0 0 0.25 0"/>
<feBlend mode="normal" in2="BackgroundImageFix" result="effect1_dropShadow_13_63"/>
<feBlend mode="normal" in="SourceGraphic" in2="effect1_dropShadow_13_63" result="shape"/>
</filter>
</defs>
</svg>
