<svg width="206" height="149" viewBox="0 0 206 149" fill="none" xmlns="http://www.w3.org/2000/svg">
<g filter="url(#filter0_d_53_18)">
<path d="M50 137.5C50 139 77.4 136.4 105 110L57 105C57 105 60.3421 111.495 60.5 116C60.6776 121.066 59.4074 124.039 57 128.5C54.8273 132.526 50 137.5 50 137.5Z" fill="#F9A75B" stroke="#F9A75B"/>
<ellipse cx="99" cy="58.5" rx="99" ry="58.5" transform="matrix(-1 0 0 1 204 0)" fill="#F9A75B"/>
<ellipse cx="88" cy="51" rx="88" ry="51" transform="matrix(-1 0 0 1 193 8)" fill="white"/>
<path d="M62 130.5C60.5 132.5 90.5 120 103 101.5L61 98C61 98 65 105 66 111C67 117 64.93 125.121 63 128.5C61.8576 130.5 62 130.5 62 130.5Z" fill="white" stroke="white"/>
<path d="M64.304 72V48.32H67.6V58.656L67.024 59.04C67.2373 58.2933 67.6533 57.6107 68.272 56.992C68.8907 56.352 69.6267 55.84 70.48 55.456C71.3333 55.0507 72.208 54.848 73.104 54.848C74.384 54.848 75.4507 55.104 76.304 55.616C77.1573 56.1067 77.7973 56.864 78.224 57.888C78.6507 58.912 78.864 60.2027 78.864 61.76V72H75.568V61.984C75.568 61.024 75.44 60.2347 75.184 59.616C74.928 58.976 74.5333 58.5173 74 58.24C73.4667 57.9413 72.8053 57.8133 72.016 57.856C71.376 57.856 70.7893 57.9627 70.256 58.176C69.7227 58.368 69.2533 58.6453 68.848 59.008C68.464 59.3707 68.1547 59.7973 67.92 60.288C67.7067 60.7573 67.6 61.2693 67.6 61.824V72H65.968C65.6907 72 65.4133 72 65.136 72C64.8587 72 64.5813 72 64.304 72ZM91.1753 72.32C89.4473 72.32 87.9113 71.9573 86.5673 71.232C85.2446 70.4853 84.1993 69.472 83.4313 68.192C82.6846 66.912 82.3113 65.44 82.3113 63.776C82.3113 62.4533 82.5246 61.248 82.9513 60.16C83.3779 59.072 83.9646 58.1333 84.7113 57.344C85.4793 56.5333 86.3859 55.9147 87.4313 55.488C88.4979 55.04 89.6499 54.816 90.8873 54.816C91.9753 54.816 92.9886 55.0293 93.9273 55.456C94.8659 55.8613 95.6766 56.4267 96.3593 57.152C97.0633 57.8773 97.5966 58.7413 97.9593 59.744C98.3433 60.7253 98.5246 61.8027 98.5033 62.976L98.4713 64.384H84.7433L84.0073 61.76H95.6233L95.1433 62.304V61.536C95.0793 60.832 94.8446 60.2027 94.4393 59.648C94.0339 59.0933 93.5219 58.656 92.9033 58.336C92.2846 58.016 91.6126 57.856 90.8873 57.856C89.7353 57.856 88.7646 58.08 87.9753 58.528C87.1859 58.9547 86.5886 59.5947 86.1833 60.448C85.7779 61.28 85.5753 62.3147 85.5753 63.552C85.5753 64.7253 85.8206 65.7493 86.3113 66.624C86.8019 67.4773 87.4953 68.1387 88.3913 68.608C89.2873 69.0773 90.3219 69.312 91.4953 69.312C92.3273 69.312 93.0953 69.1733 93.7993 68.896C94.5246 68.6187 95.3033 68.1173 96.1353 67.392L97.7993 69.728C97.2873 70.24 96.6579 70.688 95.9113 71.072C95.1859 71.456 94.4073 71.7653 93.5753 72C92.7646 72.2133 91.9646 72.32 91.1753 72.32ZM102.149 72V48.32H105.445V72H102.149ZM110.181 72V48.32H113.477V72H110.181ZM125.387 72.32C123.745 72.32 122.273 71.9467 120.971 71.2C119.691 70.432 118.678 69.3973 117.931 68.096C117.185 66.7733 116.811 65.2693 116.811 63.584C116.811 61.8987 117.185 60.4053 117.931 59.104C118.678 57.7813 119.691 56.7467 120.971 56C122.273 55.232 123.745 54.848 125.387 54.848C127.009 54.848 128.459 55.232 129.739 56C131.041 56.7467 132.065 57.7813 132.811 59.104C133.558 60.4053 133.931 61.8987 133.931 63.584C133.931 65.2693 133.558 66.7733 132.811 68.096C132.065 69.3973 131.041 70.432 129.739 71.2C128.459 71.9467 127.009 72.32 125.387 72.32ZM125.387 69.312C126.39 69.312 127.286 69.0667 128.075 68.576C128.865 68.064 129.483 67.3813 129.931 66.528C130.379 65.6533 130.593 64.672 130.571 63.584C130.593 62.4747 130.379 61.4933 129.931 60.64C129.483 59.7653 128.865 59.0827 128.075 58.592C127.286 58.1013 126.39 57.856 125.387 57.856C124.385 57.856 123.478 58.112 122.667 58.624C121.878 59.1147 121.259 59.7973 120.811 60.672C120.363 61.5253 120.15 62.496 120.171 63.584C120.15 64.672 120.363 65.6533 120.811 66.528C121.259 67.3813 121.878 68.064 122.667 68.576C123.478 69.0667 124.385 69.312 125.387 69.312ZM138.003 64.288C137.853 62.944 137.715 61.5573 137.587 60.128C137.48 58.6773 137.395 57.248 137.331 55.84C137.267 54.432 137.235 53.0987 137.235 51.84V49.6H140.691V51.84C140.691 53.1627 140.659 54.5493 140.595 56C140.531 57.4507 140.435 58.8907 140.307 60.32C140.2 61.728 140.072 63.0507 139.923 64.288H138.003ZM138.867 72.352C138.163 72.352 137.619 72.1493 137.235 71.744C136.851 71.3173 136.659 70.72 136.659 69.952C136.659 69.248 136.861 68.672 137.267 68.224C137.672 67.776 138.205 67.552 138.867 67.552C139.571 67.552 140.115 67.7653 140.499 68.192C140.883 68.5973 141.075 69.184 141.075 69.952C141.075 70.656 140.872 71.232 140.467 71.68C140.061 72.128 139.528 72.352 138.867 72.352Z" fill="#D06F15"/>
</g>
<defs>
<filter id="filter0_d_53_18" x="0" y="0" width="206" height="148.335" filterUnits="userSpaceOnUse" color-interpolation-filters="sRGB">
<feFlood flood-opacity="0" result="BackgroundImageFix"/>
<feColorMatrix in="SourceAlpha" type="matrix" values="0 0 0 0 0 0 0 0 0 0 0 0 0 0 0 0 0 0 127 0" result="hardAlpha"/>
<feOffset dx="-2" dy="6"/>
<feGaussianBlur stdDeviation="2"/>
<feComposite in2="hardAlpha" operator="out"/>
<feColorMatrix type="matrix" values="0 0 0 0 0 0 0 0 0 0 0 0 0 0 0 0 0 0 0.25 0"/>
<feBlend mode="normal" in2="BackgroundImageFix" result="effect1_dropShadow_53_18"/>
<feBlend mode="normal" in="SourceGraphic" in2="effect1_dropShadow_53_18" result="shape"/>
</filter>
</defs>
</svg>
