<svg width="206" height="147" viewBox="0 0 206 147" fill="none" xmlns="http://www.w3.org/2000/svg">
<g filter="url(#filter0_d_13_53)">
<path d="M54.0531 135.09C53.8155 136.571 81.2815 138.343 112.714 116.647L66.1119 104.109C66.1119 104.109 68.3832 111.051 67.8256 115.524C67.1986 120.554 65.4736 123.288 62.3901 127.312C59.6072 130.943 54.0531 135.09 54.0531 135.09Z" fill="#C199DF" stroke="#C199DF"/>
<ellipse cx="101" cy="58.5" rx="99" ry="58.5" fill="#C199DF"/>
<path d="M66.4479 129C64.5412 130.617 96.5897 123.002 112.886 107.74L72.7123 95C72.7123 95 75.0578 102.714 74.7003 108.786C74.3428 114.858 73 120 71 123.5C69.8572 125.5 66.4479 129 66.4479 129Z" fill="white" stroke="white"/>
<ellipse cx="101" cy="59" rx="88" ry="51" fill="white"/>
<path d="M39.304 79.04V55.2H42.632V59.04L42.12 58.752C42.248 58.112 42.6107 57.504 43.208 56.928C43.8053 56.3307 44.5307 55.8507 45.384 55.488C46.2587 55.104 47.1547 54.912 48.072 54.912C49.5867 54.912 50.9307 55.2853 52.104 56.032C53.2773 56.7787 54.2053 57.8027 54.888 59.104C55.5707 60.4053 55.912 61.8987 55.912 63.584C55.912 65.248 55.5707 66.7413 54.888 68.064C54.2267 69.3653 53.3093 70.4 52.136 71.168C50.9627 71.9147 49.64 72.288 48.168 72.288C47.1867 72.288 46.2373 72.096 45.32 71.712C44.4027 71.3067 43.624 70.7947 42.984 70.176C42.344 69.5573 41.9493 68.9173 41.8 68.256L42.632 67.808V79.04H39.304ZM47.624 69.248C48.6053 69.248 49.48 69.0027 50.248 68.512C51.016 68.0213 51.624 67.3493 52.072 66.496C52.52 65.6427 52.744 64.672 52.744 63.584C52.744 62.496 52.52 61.536 52.072 60.704C51.6453 59.8507 51.048 59.1787 50.28 58.688C49.512 58.1973 48.6267 57.952 47.624 57.952C46.6213 57.952 45.736 58.1973 44.968 58.688C44.2 59.1573 43.592 59.8187 43.144 60.672C42.696 61.5253 42.472 62.496 42.472 63.584C42.472 64.672 42.696 65.6427 43.144 66.496C43.592 67.3493 44.2 68.0213 44.968 68.512C45.736 69.0027 46.6213 69.248 47.624 69.248ZM59.4915 72V55.2H62.8195V60.48L62.4995 59.2C62.7342 58.3893 63.1288 57.6533 63.6835 56.992C64.2595 56.3307 64.9102 55.808 65.6355 55.424C66.3822 55.04 67.1502 54.848 67.9395 54.848C68.3022 54.848 68.6435 54.88 68.9635 54.944C69.3048 55.008 69.5715 55.0827 69.7635 55.168L68.8995 58.752C68.6435 58.6453 68.3555 58.56 68.0355 58.496C67.7368 58.4107 67.4382 58.368 67.1395 58.368C66.5635 58.368 66.0088 58.4853 65.4755 58.72C64.9635 58.9333 64.5048 59.2427 64.0995 59.648C63.7155 60.032 63.4062 60.4907 63.1715 61.024C62.9368 61.536 62.8195 62.1013 62.8195 62.72V72H59.4915ZM79.231 72.32C77.5883 72.32 76.1163 71.9467 74.815 71.2C73.535 70.432 72.5217 69.3973 71.775 68.096C71.0283 66.7733 70.655 65.2693 70.655 63.584C70.655 61.8987 71.0283 60.4053 71.775 59.104C72.5217 57.7813 73.535 56.7467 74.815 56C76.1163 55.232 77.5883 54.848 79.231 54.848C80.8523 54.848 82.303 55.232 83.583 56C84.8843 56.7467 85.9083 57.7813 86.655 59.104C87.4017 60.4053 87.775 61.8987 87.775 63.584C87.775 65.2693 87.4017 66.7733 86.655 68.096C85.9083 69.3973 84.8843 70.432 83.583 71.2C82.303 71.9467 80.8523 72.32 79.231 72.32ZM79.231 69.312C80.2337 69.312 81.1297 69.0667 81.919 68.576C82.7083 68.064 83.327 67.3813 83.775 66.528C84.223 65.6533 84.4363 64.672 84.415 63.584C84.4363 62.4747 84.223 61.4933 83.775 60.64C83.327 59.7653 82.7083 59.0827 81.919 58.592C81.1297 58.1013 80.2337 57.856 79.231 57.856C78.2283 57.856 77.3217 58.112 76.511 58.624C75.7217 59.1147 75.103 59.7973 74.655 60.672C74.207 61.5253 73.9937 62.496 74.015 63.584C73.9937 64.672 74.207 65.6533 74.655 66.528C75.103 67.3813 75.7217 68.064 76.511 68.576C77.3217 69.0667 78.2283 69.312 79.231 69.312ZM89.3505 78.304L88.1025 75.776C88.9345 75.776 89.6172 75.6267 90.1505 75.328C90.7052 75.0507 91.1212 74.624 91.3985 74.048C91.6758 73.4933 91.8145 72.8 91.8145 71.968V55.2H95.1105V72.768C95.1105 73.856 94.8652 74.816 94.3745 75.648C93.9052 76.48 93.2332 77.1307 92.3585 77.6C91.5052 78.0693 90.5025 78.304 89.3505 78.304ZM93.5425 51.488C92.8385 51.488 92.2945 51.3067 91.9105 50.944C91.5265 50.5813 91.3345 50.0693 91.3345 49.408C91.3345 48.7893 91.5265 48.288 91.9105 47.904C92.3158 47.52 92.8598 47.328 93.5425 47.328C94.2465 47.328 94.7905 47.5093 95.1745 47.872C95.5585 48.2347 95.7505 48.7467 95.7505 49.408C95.7505 50.0267 95.5478 50.528 95.1425 50.912C94.7585 51.296 94.2252 51.488 93.5425 51.488ZM107.675 72.32C105.947 72.32 104.411 71.9573 103.067 71.232C101.745 70.4853 100.699 69.472 99.9313 68.192C99.1846 66.912 98.8113 65.44 98.8113 63.776C98.8113 62.4533 99.0246 61.248 99.4513 60.16C99.8779 59.072 100.465 58.1333 101.211 57.344C101.979 56.5333 102.886 55.9147 103.931 55.488C104.998 55.04 106.15 54.816 107.387 54.816C108.475 54.816 109.489 55.0293 110.427 55.456C111.366 55.8613 112.177 56.4267 112.859 57.152C113.563 57.8773 114.097 58.7413 114.459 59.744C114.843 60.7253 115.025 61.8027 115.003 62.976L114.971 64.384H101.243L100.507 61.76H112.123L111.643 62.304V61.536C111.579 60.832 111.345 60.2027 110.939 59.648C110.534 59.0933 110.022 58.656 109.403 58.336C108.785 58.016 108.113 57.856 107.387 57.856C106.235 57.856 105.265 58.08 104.475 58.528C103.686 58.9547 103.089 59.5947 102.683 60.448C102.278 61.28 102.075 62.3147 102.075 63.552C102.075 64.7253 102.321 65.7493 102.811 66.624C103.302 67.4773 103.995 68.1387 104.891 68.608C105.787 69.0773 106.822 69.312 107.995 69.312C108.827 69.312 109.595 69.1733 110.299 68.896C111.025 68.6187 111.803 68.1173 112.635 67.392L114.299 69.728C113.787 70.24 113.158 70.688 112.411 71.072C111.686 71.456 110.907 71.7653 110.075 72C109.265 72.2133 108.465 72.32 107.675 72.32ZM125.721 72.32C124.164 72.32 122.767 71.936 121.529 71.168C120.313 70.4 119.343 69.3547 118.617 68.032C117.913 66.7093 117.561 65.2267 117.561 63.584C117.561 61.9413 117.913 60.4587 118.617 59.136C119.343 57.8133 120.313 56.768 121.529 56C122.767 55.232 124.164 54.848 125.721 54.848C127.215 54.848 128.569 55.1573 129.785 55.776C131.023 56.3733 131.961 57.1947 132.601 58.24L130.777 60.48C130.436 59.9893 129.999 59.5413 129.465 59.136C128.932 58.7307 128.367 58.4107 127.769 58.176C127.172 57.9413 126.596 57.824 126.041 57.824C125.017 57.824 124.1 58.08 123.289 58.592C122.5 59.0827 121.871 59.7653 121.401 60.64C120.932 61.5147 120.697 62.496 120.697 63.584C120.697 64.672 120.943 65.6533 121.433 66.528C121.924 67.3813 122.575 68.064 123.385 68.576C124.196 69.088 125.092 69.344 126.073 69.344C126.649 69.344 127.204 69.248 127.737 69.056C128.292 68.864 128.825 68.576 129.337 68.192C129.849 67.808 130.329 67.3387 130.777 66.784L132.601 69.024C131.919 69.984 130.937 70.7733 129.657 71.392C128.399 72.0107 127.087 72.32 125.721 72.32ZM137.79 72V50.912H141.086V72H137.79ZM134.302 58.4V55.2H144.99V58.4H134.302ZM154.217 72.32C152.809 72.32 151.539 72.0747 150.409 71.584C149.278 71.0933 148.339 70.368 147.593 69.408L149.833 67.488C150.473 68.2347 151.166 68.7787 151.913 69.12C152.681 69.44 153.545 69.6 154.505 69.6C154.889 69.6 155.241 69.5573 155.561 69.472C155.902 69.3653 156.19 69.216 156.425 69.024C156.681 68.832 156.873 68.608 157.001 68.352C157.129 68.0747 157.193 67.776 157.193 67.456C157.193 66.9013 156.99 66.4533 156.585 66.112C156.371 65.9627 156.03 65.8027 155.561 65.632C155.113 65.44 154.526 65.248 153.801 65.056C152.563 64.736 151.55 64.3733 150.761 63.968C149.971 63.5627 149.363 63.104 148.937 62.592C148.617 62.1867 148.382 61.7493 148.233 61.28C148.083 60.7893 148.009 60.256 148.009 59.68C148.009 58.976 148.158 58.336 148.457 57.76C148.777 57.1627 149.203 56.6507 149.737 56.224C150.291 55.776 150.931 55.4347 151.657 55.2C152.403 54.9653 153.193 54.848 154.025 54.848C154.814 54.848 155.593 54.9547 156.361 55.168C157.15 55.3813 157.875 55.6907 158.537 56.096C159.198 56.5013 159.753 56.9813 160.201 57.536L158.313 59.616C157.907 59.2107 157.459 58.8587 156.969 58.56C156.499 58.24 156.019 57.9947 155.529 57.824C155.038 57.6533 154.59 57.568 154.185 57.568C153.737 57.568 153.331 57.6107 152.969 57.696C152.606 57.7813 152.297 57.9093 152.041 58.08C151.806 58.2507 151.625 58.464 151.497 58.72C151.369 58.976 151.305 59.264 151.305 59.584C151.326 59.8613 151.39 60.128 151.497 60.384C151.625 60.6187 151.795 60.8213 152.009 60.992C152.243 61.1627 152.595 61.344 153.065 61.536C153.534 61.728 154.131 61.9093 154.857 62.08C155.923 62.3573 156.798 62.6667 157.481 63.008C158.185 63.328 158.739 63.7013 159.145 64.128C159.571 64.5333 159.87 65.0027 160.041 65.536C160.211 66.0693 160.297 66.6667 160.297 67.328C160.297 68.288 160.019 69.152 159.465 69.92C158.931 70.6667 158.206 71.2533 157.289 71.68C156.371 72.1067 155.347 72.32 154.217 72.32ZM164.409 64.288C164.26 62.944 164.121 61.5573 163.993 60.128C163.886 58.6773 163.801 57.248 163.737 55.84C163.673 54.432 163.641 53.0987 163.641 51.84V49.6H167.097V51.84C167.097 53.1627 167.065 54.5493 167.001 56C166.937 57.4507 166.841 58.8907 166.713 60.32C166.606 61.728 166.478 63.0507 166.329 64.288H164.409ZM165.273 72.352C164.569 72.352 164.025 72.1493 163.641 71.744C163.257 71.3173 163.065 70.72 163.065 69.952C163.065 69.248 163.268 68.672 163.673 68.224C164.078 67.776 164.612 67.552 165.273 67.552C165.977 67.552 166.521 67.7653 166.905 68.192C167.289 68.5973 167.481 69.184 167.481 69.952C167.481 70.656 167.278 71.232 166.873 71.68C166.468 72.128 165.934 72.352 165.273 72.352Z" fill="#6A3791"/>
</g>
<defs>
<filter id="filter0_d_13_53" x="0" y="0" width="206" height="146.387" filterUnits="userSpaceOnUse" color-interpolation-filters="sRGB">
<feFlood flood-opacity="0" result="BackgroundImageFix"/>
<feColorMatrix in="SourceAlpha" type="matrix" values="0 0 0 0 0 0 0 0 0 0 0 0 0 0 0 0 0 0 127 0" result="hardAlpha"/>
<feOffset dx="2" dy="6"/>
<feGaussianBlur stdDeviation="2"/>
<feComposite in2="hardAlpha" operator="out"/>
<feColorMatrix type="matrix" values="0 0 0 0 0 0 0 0 0 0 0 0 0 0 0 0 0 0 0.25 0"/>
<feBlend mode="normal" in2="BackgroundImageFix" result="effect1_dropShadow_13_53"/>
<feBlend mode="normal" in="SourceGraphic" in2="effect1_dropShadow_13_53" result="shape"/>
</filter>
</defs>
</svg>
