<svg width="206" height="149" viewBox="0 0 206 149" fill="none" xmlns="http://www.w3.org/2000/svg">
<g filter="url(#filter0_d_59_67)">
<path d="M50 137.5C50 139 77.4 136.4 105 110L57 105C57 105 60.3421 111.495 60.5 116C60.6776 121.066 59.4074 124.039 57 128.5C54.8273 132.526 50 137.5 50 137.5Z" fill="#AC4976" stroke="#AC4976"/>
<ellipse cx="99" cy="58.5" rx="99" ry="58.5" transform="matrix(-1 0 0 1 204 0)" fill="#AC4976"/>
<ellipse cx="88" cy="51" rx="88" ry="51" transform="matrix(-1 0 0 1 193 8)" fill="white"/>
<path d="M62 130.5C60.5 132.5 90.5 120 103 101.5L61 98C61 98 65 105 66 111C67 117 64.93 125.121 63 128.5C61.8576 130.5 62 130.5 62 130.5Z" fill="white" stroke="white"/>
<path d="M52.904 72.32C51.496 72.32 50.2267 72.0747 49.096 71.584C47.9653 71.0933 47.0267 70.368 46.28 69.408L48.52 67.488C49.16 68.2347 49.8533 68.7787 50.6 69.12C51.368 69.44 52.232 69.6 53.192 69.6C53.576 69.6 53.928 69.5573 54.248 69.472C54.5893 69.3653 54.8773 69.216 55.112 69.024C55.368 68.832 55.56 68.608 55.688 68.352C55.816 68.0747 55.88 67.776 55.88 67.456C55.88 66.9013 55.6773 66.4533 55.272 66.112C55.0587 65.9627 54.7173 65.8027 54.248 65.632C53.8 65.44 53.2133 65.248 52.488 65.056C51.2507 64.736 50.2373 64.3733 49.448 63.968C48.6587 63.5627 48.0507 63.104 47.624 62.592C47.304 62.1867 47.0693 61.7493 46.92 61.28C46.7707 60.7893 46.696 60.256 46.696 59.68C46.696 58.976 46.8453 58.336 47.144 57.76C47.464 57.1627 47.8907 56.6507 48.424 56.224C48.9787 55.776 49.6187 55.4347 50.344 55.2C51.0907 54.9653 51.88 54.848 52.712 54.848C53.5013 54.848 54.28 54.9547 55.048 55.168C55.8373 55.3813 56.5627 55.6907 57.224 56.096C57.8853 56.5013 58.44 56.9813 58.888 57.536L57 59.616C56.5947 59.2107 56.1467 58.8587 55.656 58.56C55.1867 58.24 54.7067 57.9947 54.216 57.824C53.7253 57.6533 53.2773 57.568 52.872 57.568C52.424 57.568 52.0187 57.6107 51.656 57.696C51.2933 57.7813 50.984 57.9093 50.728 58.08C50.4933 58.2507 50.312 58.464 50.184 58.72C50.056 58.976 49.992 59.264 49.992 59.584C50.0133 59.8613 50.0773 60.128 50.184 60.384C50.312 60.6187 50.4827 60.8213 50.696 60.992C50.9307 61.1627 51.2827 61.344 51.752 61.536C52.2213 61.728 52.8187 61.9093 53.544 62.08C54.6107 62.3573 55.4853 62.6667 56.168 63.008C56.872 63.328 57.4267 63.7013 57.832 64.128C58.2587 64.5333 58.5573 65.0027 58.728 65.536C58.8987 66.0693 58.984 66.6667 58.984 67.328C58.984 68.288 58.7067 69.152 58.152 69.92C57.6187 70.6667 56.8933 71.2533 55.976 71.68C55.0587 72.1067 54.0347 72.32 52.904 72.32ZM68.5045 72.32C67.3098 72.32 66.2645 72.0427 65.3685 71.488C64.4938 70.9333 63.8112 70.1547 63.3205 69.152C62.8512 68.1493 62.6165 66.9547 62.6165 65.568V55.2H65.9125V64.672C65.9125 65.6533 66.0618 66.5067 66.3605 67.232C66.6805 67.936 67.1285 68.48 67.7045 68.864C68.3018 69.248 69.0165 69.44 69.8485 69.44C70.4672 69.44 71.0325 69.344 71.5445 69.152C72.0565 68.9387 72.4938 68.6507 72.8565 68.288C73.2405 67.9253 73.5392 67.488 73.7525 66.976C73.9658 66.464 74.0725 65.9093 74.0725 65.312V55.2H77.3685V72H74.0725V68.48L74.6485 68.096C74.3925 68.8853 73.9552 69.6 73.3365 70.24C72.7392 70.88 72.0245 71.392 71.1925 71.776C70.3605 72.1387 69.4645 72.32 68.5045 72.32ZM90.8235 72.32C90.0982 72.32 89.3728 72.2027 88.6475 71.968C87.9435 71.7333 87.2928 71.424 86.6955 71.04C86.1195 70.6347 85.6288 70.1973 85.2235 69.728C84.8395 69.2373 84.5835 68.7467 84.4555 68.256L85.2875 67.808V71.904H81.9915V48.32H85.2875V59.04L84.7755 58.752C84.8822 58.2613 85.1168 57.792 85.4795 57.344C85.8422 56.8747 86.3008 56.4587 86.8555 56.096C87.4315 55.712 88.0502 55.4133 88.7115 55.2C89.3728 54.9653 90.0448 54.848 90.7275 54.848C92.2422 54.848 93.5862 55.2213 94.7595 55.968C95.9328 56.7147 96.8608 57.7493 97.5435 59.072C98.2262 60.3733 98.5675 61.8667 98.5675 63.552C98.5675 65.2373 98.2262 66.7413 97.5435 68.064C96.8822 69.3867 95.9648 70.432 94.7915 71.2C93.6182 71.9467 92.2955 72.32 90.8235 72.32ZM90.2795 69.312C91.2608 69.312 92.1355 69.0667 92.9035 68.576C93.6715 68.064 94.2795 67.3813 94.7275 66.528C95.1755 65.6533 95.3995 64.6613 95.3995 63.552C95.3995 62.464 95.1755 61.4933 94.7275 60.64C94.3008 59.7653 93.7035 59.0827 92.9355 58.592C92.1675 58.1013 91.2822 57.856 90.2795 57.856C89.2768 57.856 88.3915 58.1013 87.6235 58.592C86.8555 59.0827 86.2475 59.7653 85.7995 60.64C85.3515 61.4933 85.1275 62.464 85.1275 63.552C85.1275 64.6613 85.3515 65.6533 85.7995 66.528C86.2475 67.3813 86.8555 68.064 87.6235 68.576C88.3915 69.0667 89.2768 69.312 90.2795 69.312ZM102.084 72V55.2H105.412V58.784L104.804 59.168C104.974 58.6133 105.241 58.08 105.604 57.568C105.988 57.056 106.446 56.608 106.98 56.224C107.534 55.8187 108.121 55.4987 108.74 55.264C109.38 55.0293 110.03 54.912 110.692 54.912C111.652 54.912 112.494 55.072 113.22 55.392C113.945 55.712 114.542 56.192 115.012 56.832C115.481 57.472 115.822 58.272 116.036 59.232L115.524 59.104L115.748 58.56C115.982 58.0693 116.302 57.6107 116.708 57.184C117.134 56.736 117.614 56.3413 118.148 56C118.681 55.6587 119.246 55.392 119.844 55.2C120.441 55.008 121.028 54.912 121.604 54.912C122.862 54.912 123.897 55.168 124.708 55.68C125.54 56.192 126.158 56.9707 126.564 58.016C126.99 59.0613 127.204 60.3627 127.204 61.92V72H123.876V62.112C123.876 61.152 123.748 60.3733 123.492 59.776C123.257 59.1573 122.894 58.6987 122.404 58.4C121.913 58.1013 121.284 57.952 120.516 57.952C119.918 57.952 119.353 58.0587 118.82 58.272C118.308 58.464 117.86 58.7413 117.476 59.104C117.092 59.4667 116.793 59.8933 116.58 60.384C116.366 60.8533 116.26 61.376 116.26 61.952V72H112.932V62.048C112.932 61.1733 112.804 60.4373 112.548 59.84C112.292 59.2213 111.918 58.752 111.428 58.432C110.937 58.112 110.34 57.952 109.636 57.952C109.038 57.952 108.484 58.0587 107.972 58.272C107.46 58.464 107.012 58.7413 106.628 59.104C106.244 59.4453 105.945 59.8613 105.732 60.352C105.518 60.8213 105.412 61.3333 105.412 61.888V72H102.084ZM132.161 72V55.2H135.457V72H132.161ZM133.761 51.488C133.057 51.488 132.513 51.3067 132.129 50.944C131.745 50.5813 131.553 50.0693 131.553 49.408C131.553 48.7893 131.745 48.288 132.129 47.904C132.534 47.52 133.078 47.328 133.761 47.328C134.465 47.328 135.009 47.5093 135.393 47.872C135.777 48.2347 135.969 48.7467 135.969 49.408C135.969 50.0267 135.766 50.528 135.361 50.912C134.977 51.296 134.443 51.488 133.761 51.488ZM142.603 72V50.912H145.899V72H142.603ZM139.115 58.4V55.2H149.803V58.4H139.115ZM153.284 64.288C153.135 62.944 152.996 61.5573 152.868 60.128C152.761 58.6773 152.676 57.248 152.612 55.84C152.548 54.432 152.516 53.0987 152.516 51.84V49.6H155.972V51.84C155.972 53.1627 155.94 54.5493 155.876 56C155.812 57.4507 155.716 58.8907 155.588 60.32C155.481 61.728 155.353 63.0507 155.204 64.288H153.284ZM154.148 72.352C153.444 72.352 152.9 72.1493 152.516 71.744C152.132 71.3173 151.94 70.72 151.94 69.952C151.94 69.248 152.143 68.672 152.548 68.224C152.953 67.776 153.487 67.552 154.148 67.552C154.852 67.552 155.396 67.7653 155.78 68.192C156.164 68.5973 156.356 69.184 156.356 69.952C156.356 70.656 156.153 71.232 155.748 71.68C155.343 72.128 154.809 72.352 154.148 72.352Z" fill="#AC4976"/>
</g>
<defs>
<filter id="filter0_d_59_67" x="0" y="0" width="206" height="148.335" filterUnits="userSpaceOnUse" color-interpolation-filters="sRGB">
<feFlood flood-opacity="0" result="BackgroundImageFix"/>
<feColorMatrix in="SourceAlpha" type="matrix" values="0 0 0 0 0 0 0 0 0 0 0 0 0 0 0 0 0 0 127 0" result="hardAlpha"/>
<feOffset dx="-2" dy="6"/>
<feGaussianBlur stdDeviation="2"/>
<feComposite in2="hardAlpha" operator="out"/>
<feColorMatrix type="matrix" values="0 0 0 0 0 0 0 0 0 0 0 0 0 0 0 0 0 0 0.25 0"/>
<feBlend mode="normal" in2="BackgroundImageFix" result="effect1_dropShadow_59_67"/>
<feBlend mode="normal" in="SourceGraphic" in2="effect1_dropShadow_59_67" result="shape"/>
</filter>
</defs>
</svg>
